<svg width="30" height="26" viewBox="0 0 30 26" fill="none" xmlns="http://www.w3.org/2000/svg">
<path fill-rule="evenodd" clip-rule="evenodd" d="M8.02326 0C5.76981 0 3.73207 0.563205 2.25301 1.9366C0.759935 3.32305 0 5.38193 0 8.02326V17.7907C0 20.4321 0.759935 22.4909 2.25301 23.8774C3.73207 25.2508 5.76981 25.814 8.02326 25.814H21.9767C24.2302 25.814 26.268 25.2508 27.7469 23.8774C29.2401 22.4909 30 20.4321 30 17.7907V8.02326C30 5.38193 29.2401 3.32305 27.7469 1.9366C26.268 0.563205 24.2302 0 21.9767 0H8.02326ZM25.0863 7.83112C25.5435 7.47773 25.6278 6.82049 25.2744 6.36315C24.9211 5.9058 24.2639 5.82154 23.8065 6.17494L16.0663 12.1557C15.4383 12.6412 14.5616 12.6412 13.9334 12.1557L6.1934 6.17494C5.73604 5.82154 5.07882 5.9058 4.72542 6.36315C4.37202 6.82049 4.45628 7.47773 4.91364 7.83112L12.6537 13.812C14.0357 14.8797 15.9642 14.8797 17.3461 13.812L25.0863 7.83112Z" fill="#00EEFF"/>
</svg>
