<svg width="27" height="30" viewBox="0 0 27 30" fill="none" xmlns="http://www.w3.org/2000/svg">
<path fill-rule="evenodd" clip-rule="evenodd" d="M1.75735 1.75736C-1.78814e-07 3.51472 0 6.34314 0 12V18C0 23.6568 -1.78814e-07 26.4853 1.75735 28.2426C3.51472 30 6.34314 30 12 30H15C20.6568 30 23.4853 30 25.2426 28.2426C27 26.4853 27 23.6568 27 18V12C27 6.34314 27 3.51472 25.2426 1.75736C23.4853 1.78814e-07 20.6568 0 15 0H12C6.34314 0 3.51472 1.78814e-07 1.75735 1.75736ZM6.375 9C6.375 8.37868 6.87868 7.875 7.5 7.875H19.5C20.1213 7.875 20.625 8.37868 20.625 9C20.625 9.62132 20.1213 10.125 19.5 10.125H7.5C6.87868 10.125 6.375 9.62132 6.375 9ZM6.375 15C6.375 14.3787 6.87868 13.875 7.5 13.875H19.5C20.1213 13.875 20.625 14.3787 20.625 15C20.625 15.6213 20.1213 16.125 19.5 16.125H7.5C6.87868 16.125 6.375 15.6213 6.375 15ZM7.5 19.875C6.87868 19.875 6.375 20.3787 6.375 21C6.375 21.6213 6.87868 22.125 7.5 22.125H15C15.6213 22.125 16.125 21.6213 16.125 21C16.125 20.3787 15.6213 19.875 15 19.875H7.5Z" fill="#00EEFF"/>
</svg>
